<svg preserveAspectRatio="none" width="100%" height="100%" overflow="visible" style="display: block;" viewBox="0 0 24 29.3333" fill="none" xmlns="http://www.w3.org/2000/svg">
<path id="Vector" d="M4 28C3.29276 28 2.61448 27.7191 2.11438 27.219C1.61428 26.7189 1.33333 26.0406 1.33333 25.3333V4C1.33333 3.29276 1.61428 2.61448 2.11438 2.11439C2.61448 1.61429 3.29276 1.33334 4 1.33334H14.6667C15.0887 1.33265 15.5068 1.41547 15.8967 1.57703C16.2866 1.73858 16.6408 1.97568 16.9387 2.27467L21.7227 7.05867C22.0225 7.35668 22.2602 7.71113 22.4223 8.10155C22.5843 8.49198 22.6674 8.91063 22.6667 9.33334V25.3333C22.6667 26.0406 22.3857 26.7189 21.8856 27.219C21.3855 27.7191 20.7072 28 20 28H4Z" stroke="var(--stroke-0, #155DFC)" stroke-width="2.66667" stroke-linecap="round" stroke-linejoin="round"/>
</svg>
