<svg preserveAspectRatio="none" width="100%" height="100%" overflow="visible" style="display: block;" viewBox="0 0 26.6667 26.6667" fill="none" xmlns="http://www.w3.org/2000/svg">
<path id="Vector" d="M9.33333 1.33333H4C3.29276 1.33333 2.61448 1.61428 2.11438 2.11438C1.61428 2.61448 1.33333 3.29276 1.33333 4V9.33333M9.33333 1.33333H22.6667C23.3739 1.33333 24.0522 1.61428 24.5523 2.11438C25.0524 2.61448 25.3333 3.29276 25.3333 4V9.33333M9.33333 1.33333V25.3333M1.33333 9.33333V22.6667C1.33333 23.3739 1.61428 24.0522 2.11438 24.5523C2.61448 25.0524 3.29276 25.3333 4 25.3333H9.33333M1.33333 9.33333H25.3333M25.3333 9.33333V22.6667C25.3333 23.3739 25.0524 24.0522 24.5523 24.5523C24.0522 25.0524 23.3739 25.3333 22.6667 25.3333H9.33333" stroke="var(--stroke-0, #00A63E)" stroke-width="2.66667" stroke-linecap="round" stroke-linejoin="round"/>
</svg>
